# xmcd
#
# Track frame offsets:
#	150
#	16090
#	40426
#	55683
#	72540
#	87242
#	100790
#	119096
#	137799
#	151493
#	170631
#	186275
#	202567
#	218602
#	234545
#	253982
#	273491
#	290632
#	312181
#	324674
#
# Disc length: 4552 seconds
#
# Revision: 1
# Processed by: cddbd v1.5.2PL0 Copyright (c) Steve Scherf et al.
# Submitted via: audiograbber 1.83.01
#
DISCID=2b11c614
DTITLE=Various Artist - Ultimate Club 80 Disc 4
DYEAR=2005
DGENRE=Club
TTITLE0=Culture Club - Church Of The Poison Mind
TTITLE1=Simple Minds - Alive and Kicking
TTITLE2=Kim Wilde - Kids In America
TTITLE3=Human League - Human
TTITLE4=Talk Talk - Talk Talk
TTITLE5=UB 40 - Red Red Wine
TTITLE6=Blow Monkeys - Diggin' Your Scene
TTITLE7=Roxy Music - More Than This
TTITLE8=Kate Bush - Hounds Of Love
TTITLE9=Ice House - Hey Little Girl
TTITLE10=OMD - Electricity
TTITLE11=Confetti's - The Sound Of C
TTITLE12=One O One - Rock To The Beat
TTITLE13=Belouis Some - Imagination
TTITLE14=Heaven 17 - Let Me Go
TTITLE15=Talking Heads - Road To Nowhere
TTITLE16=Greg Kihn - Jeopardy
TTITLE17=Scritti Politti - Wood Beez
TTITLE18=Rah Band - Clouds Across The Moon
TTITLE19=William Pitt - City Lights
EXTD=
EXTT0=
EXTT1=
EXTT2=
EXTT3=
EXTT4=
EXTT5=
EXTT6=
EXTT7=
EXTT8=
EXTT9=
EXTT10=
EXTT11=
EXTT12=
EXTT13=
EXTT14=
EXTT15=
EXTT16=
EXTT17=
EXTT18=
EXTT19=
PLAYORDER=
